<svg xmlns="http://www.w3.org/2000/svg" viewBox="0 0 600 560" width="600" height="560">
  <rect x="0" y="0" width="600" height="560" fill="#F4EFE4" />
  <rect x="6" y="6" width="588" height="548" fill="none" stroke="#0D2244" stroke-width="4" />
  <!-- Media cancha (círculo central) -->
  <path d="M 210 6 A 90 90 0 0 0 390 6" fill="none" stroke="#0D2244" stroke-width="3" />
  <!-- Zona restringida / llave -->
  <rect x="202" y="6" width="196" height="232" fill="none" stroke="#0D2244" stroke-width="3" />
  <rect x="230" y="6" width="140" height="232" fill="none" stroke="#0D2244" stroke-width="2" opacity="0.5" />
  <!-- Círculo de tiro libre -->
  <circle cx="300" cy="238" r="72" fill="none" stroke="#0D2244" stroke-width="3" stroke-dasharray="10 8" />
  <path d="M 228 238 A 72 72 0 0 1 372 238" fill="none" stroke="#0D2244" stroke-width="3" />
  <!-- Tablero y aro -->
  <line x1="255" y1="40" x2="345" y2="40" stroke="#0D2244" stroke-width="5" />
  <circle cx="300" cy="63" r="9" fill="none" stroke="#C1272D" stroke-width="3" />
  <!-- Área restringida bajo el aro -->
  <path d="M 260 63 A 40 40 0 0 0 340 63" fill="none" stroke="#0D2244" stroke-width="2" />
  <!-- Línea de tres puntos -->
  <path d="M 30 6 L 30 130 A 270 270 0 0 0 570 130 L 570 6" fill="none" stroke="#0D2244" stroke-width="3" />
</svg>
